<mxfile host="app.diagrams.net" modified="2023-07-17T09:27:25.576Z" agent="Mozilla/5.0 (Windows NT 10.0; Win64; x64) AppleWebKit/537.36 (KHTML, like Gecko) Chrome/114.0.0.0 Safari/537.36" etag="zdvuyuJwxyhW8swwvctn" version="21.6.1" type="device">
  <diagram name="第 1 页" id="yBO4wLuV-DXhI2S5A4yd">
    <mxGraphModel dx="2074" dy="1142" grid="1" gridSize="10" guides="1" tooltips="1" connect="1" arrows="1" fold="1" page="1" pageScale="1" pageWidth="827" pageHeight="1169" math="0" shadow="0">
      <root>
        <mxCell id="0" />
        <mxCell id="1" parent="0" />
        <mxCell id="J22TCRabVooDn23ta38x-7" style="edgeStyle=orthogonalEdgeStyle;rounded=0;orthogonalLoop=1;jettySize=auto;html=1;exitX=1;exitY=0;exitDx=0;exitDy=0;entryX=0;entryY=0.25;entryDx=0;entryDy=0;" edge="1" parent="1" source="J22TCRabVooDn23ta38x-1" target="J22TCRabVooDn23ta38x-2">
          <mxGeometry relative="1" as="geometry" />
        </mxCell>
        <mxCell id="J22TCRabVooDn23ta38x-1" value="Client" style="ellipse;whiteSpace=wrap;html=1;" vertex="1" parent="1">
          <mxGeometry x="90" y="160" width="120" height="80" as="geometry" />
        </mxCell>
        <mxCell id="J22TCRabVooDn23ta38x-5" style="edgeStyle=orthogonalEdgeStyle;rounded=0;orthogonalLoop=1;jettySize=auto;html=1;exitX=1;exitY=0.25;exitDx=0;exitDy=0;entryX=0;entryY=0.25;entryDx=0;entryDy=0;" edge="1" parent="1" source="J22TCRabVooDn23ta38x-2" target="J22TCRabVooDn23ta38x-4">
          <mxGeometry relative="1" as="geometry" />
        </mxCell>
        <mxCell id="J22TCRabVooDn23ta38x-8" style="edgeStyle=orthogonalEdgeStyle;rounded=0;orthogonalLoop=1;jettySize=auto;html=1;exitX=0;exitY=0.75;exitDx=0;exitDy=0;entryX=0.933;entryY=0.817;entryDx=0;entryDy=0;entryPerimeter=0;" edge="1" parent="1" source="J22TCRabVooDn23ta38x-2" target="J22TCRabVooDn23ta38x-1">
          <mxGeometry relative="1" as="geometry" />
        </mxCell>
        <mxCell id="J22TCRabVooDn23ta38x-2" value="EC2" style="rounded=1;whiteSpace=wrap;html=1;" vertex="1" parent="1">
          <mxGeometry x="280" y="170" width="120" height="60" as="geometry" />
        </mxCell>
        <mxCell id="J22TCRabVooDn23ta38x-3" value="Flask" style="shape=callout;whiteSpace=wrap;html=1;perimeter=calloutPerimeter;" vertex="1" parent="1">
          <mxGeometry x="310" y="90" width="120" height="80" as="geometry" />
        </mxCell>
        <mxCell id="J22TCRabVooDn23ta38x-6" style="edgeStyle=orthogonalEdgeStyle;rounded=0;orthogonalLoop=1;jettySize=auto;html=1;exitX=0;exitY=0.75;exitDx=0;exitDy=0;entryX=1;entryY=0.75;entryDx=0;entryDy=0;" edge="1" parent="1" source="J22TCRabVooDn23ta38x-4" target="J22TCRabVooDn23ta38x-2">
          <mxGeometry relative="1" as="geometry" />
        </mxCell>
        <mxCell id="J22TCRabVooDn23ta38x-4" value="rds(MySQL)" style="rounded=1;whiteSpace=wrap;html=1;" vertex="1" parent="1">
          <mxGeometry x="470" y="170" width="120" height="60" as="geometry" />
        </mxCell>
      </root>
    </mxGraphModel>
  </diagram>
</mxfile>
